<svg xmlns="http://www.w3.org/2000/svg" version="1.1" xmlns:xlink="http://www.w3.org/1999/xlink" xmlns:svgjs="http://svgjs.dev/svgjs" width="1500" height="1500" viewBox="0 0 1500 1500"><rect width="1500" height="1500" fill="#000000"></rect><g transform="matrix(0.6666666666666666,0,0,0.6666666666666666,249.78425655976667,249.78425655976673)"><svg viewBox="0 0 343 343" data-background-color="#000000" preserveAspectRatio="xMidYMid meet" height="1500" width="1500" xmlns="http://www.w3.org/2000/svg" xmlns:xlink="http://www.w3.org/1999/xlink"><g id="tight-bounds" transform="matrix(1,0,0,1,0.0740000000000407,0.07400000000001228)"><svg viewBox="0 0 342.85155851775386 342.85155851775386" height="342.85155851775386" width="342.85155851775386"><g><svg></svg></g><g><svg viewBox="0 0 342.85155851775386 342.85155851775386" height="342.85155851775386" width="342.85155851775386"><g><path d="M0 171.426c0-94.676 76.75-171.426 171.426-171.426 94.676 0 171.426 76.75 171.426 171.426 0 94.676-76.75 171.426-171.426 171.426-94.676 0-171.426-76.75-171.426-171.426zM171.426 325.664c85.184 0 154.239-69.055 154.238-154.238 0-85.184-69.055-154.239-154.238-154.239-85.184 0-154.239 69.055-154.239 154.239 0 85.184 69.055 154.239 154.239 154.238z" data-fill-palette-color="tertiary" fill="#efdec0" stroke="transparent"></path><ellipse rx="164.56874808852186" ry="164.56874808852186" cx="171.42577925887693" cy="171.42577925887693" fill="#efdec0" stroke="transparent" stroke-width="0" fill-opacity="1" data-fill-palette-color="tertiary"></ellipse></g><g transform="matrix(1,0,0,1,64.84655864529837,76.13278615568825)"><svg viewBox="0 0 213.1584412271571 190.58598620637736" height="190.58598620637736" width="213.1584412271571"><g><svg viewBox="0 0 213.1584412271571 190.58598620637736" height="190.58598620637736" width="213.1584412271571"><g><svg viewBox="0 0 213.1584412271571 190.58598620637736" height="190.58598620637736" width="213.1584412271571"><g><svg viewBox="0 0 213.1584412271571 190.58598620637736" height="190.58598620637736" width="213.1584412271571"><g id="textblocktransform"><svg viewBox="0 0 213.1584412271571 190.58598620637736" height="190.58598620637736" width="213.1584412271571" id="textblock"><g><svg viewBox="0 0 213.1584412271571 190.58598620637736" height="190.58598620637736" width="213.1584412271571"><g transform="matrix(1,0,0,1,0,0)"><svg width="213.1584412271571" viewBox="0.24 -38.09 44.73 39.99" height="190.58598620637736" data-palette-color="#fe2106"><path d="M17.43-34.28L17.43-34.28Q17.43-33.15 16.72-32.32 16.02-31.49 15.04-30.96L15.04-30.96Q14.16-30.42 13.23-29.81 12.3-29.2 11.52-28.44 10.74-27.69 10.25-26.76 9.77-25.83 9.77-24.66L9.77-24.66Q9.77-23.63 10.25-22.8 10.74-21.97 11.45-21.17 12.16-20.36 13.01-19.51 13.87-18.65 14.58-17.6 15.28-16.55 15.77-15.23 16.26-13.92 16.26-12.16L16.26-12.16Q16.26-10.94 15.75-9.4 15.23-7.86 14.36-6.3 13.48-4.74 12.28-3.27 11.08-1.81 9.74-0.66 8.4 0.49 6.93 1.2 5.47 1.9 4.1 1.9L4.1 1.9Q2.59 1.9 1.42 1.07 0.24 0.24 0.24-1.42L0.24-1.42Q0.24-2.54 0.78-3.49 1.32-4.44 2.1-5.32 2.88-6.2 3.83-7.03 4.79-7.86 5.57-8.69 6.35-9.52 6.88-10.42 7.42-11.33 7.42-12.35L7.42-12.35Q7.42-13.77 6.42-15.26 5.42-16.75 4.2-18.33 2.98-19.92 1.98-21.58 0.98-23.24 0.98-24.95L0.98-24.95Q0.98-27.05 2.1-29.37 3.22-31.69 4.98-33.62 6.74-35.55 8.94-36.82 11.13-38.09 13.28-38.09L13.28-38.09Q14.99-38.09 16.21-37.06 17.43-36.04 17.43-34.28ZM41.01-11.72L41.01-11.72Q40.57-9.52 39.62-7.15 38.67-4.79 37.18-2.83 35.69-0.88 33.64 0.37 31.59 1.61 28.95 1.61L28.95 1.61Q27 1.61 25.44 0.83 23.87 0.05 22.6-1.27 21.34-2.59 20.41-4.3 19.48-6.01 18.87-7.84 18.26-9.67 17.97-11.47 17.67-13.28 17.67-14.84L17.67-14.84Q17.67-17.04 18.09-19.56 18.5-22.07 19.33-24.54 20.16-27 21.43-29.27 22.7-31.54 24.44-33.28 26.17-35.01 28.34-36.06 30.52-37.11 33.2-37.11L33.2-37.11Q34.91-37.11 36.37-36.45 37.84-35.79 38.91-34.69 39.99-33.59 40.6-32.08 41.21-30.57 41.21-28.91L41.21-28.91 41.21-28.47Q41.21-27.59 41.14-26.29 41.06-25 40.67-23.83 40.28-22.66 39.5-21.8 38.72-20.95 37.3-20.95L37.3-20.95Q35.59-20.95 34.71-21.73 33.84-22.51 33.84-24.32L33.84-24.32Q33.84-25 33.88-25.68 33.93-26.37 33.93-27.05L33.93-27.05Q33.93-28.08 33.59-28.64 33.25-29.2 32.18-29.2L32.18-29.2Q30.95-29.2 29.98-28.42 29-27.64 28.27-26.37 27.54-25.1 27-23.49 26.46-21.88 26.12-20.24 25.78-18.6 25.63-17.09 25.49-15.58 25.49-14.5L25.49-14.5Q25.49-13.62 25.58-12.48 25.68-11.33 26-10.28 26.32-9.23 26.95-8.5 27.59-7.76 28.61-7.76L28.61-7.76Q30.37-7.76 31.44-8.86 32.52-9.96 32.91-11.67L32.91-11.67Q32.22-11.77 31.56-11.99 30.91-12.21 30.34-12.62 29.78-13.04 29.44-13.65 29.1-14.26 29.1-15.09L29.1-15.09Q29.1-16.6 30.12-17.46 31.15-18.31 32.54-18.75 33.93-19.19 35.4-19.31 36.86-19.43 37.74-19.43L37.74-19.43Q38.38-19.43 39.6-19.34 40.82-19.24 42.01-18.92 43.21-18.6 44.09-18.02 44.97-17.43 44.97-16.5L44.97-16.5Q44.97-14.65 43.97-13.31 42.97-11.96 41.01-11.72Z" opacity="1" transform="matrix(1,0,0,1,0,0)" fill="#fe2106" class="wordmark-text-0" data-fill-palette-color="quaternary" id="text-0"></path></svg></g></svg></g></svg></g></svg></g><g></g></svg></g></svg></g></svg></g></svg></g><defs></defs></svg><rect width="342.85155851775386" height="342.85155851775386" fill="none" stroke="none" visibility="hidden"></rect></g></svg></g></svg>